<?xml version="1.0" encoding="UTF-8"?>
<svg id="Capa_1" data-name="Capa 1" xmlns="http://www.w3.org/2000/svg" width="723" height="118.7986" xmlns:xlink="http://www.w3.org/1999/xlink" viewBox="0 0 723 118.7986">
  <defs>
    <style>
      .cls-1 {
        fill: #006290;
      }

      .cls-2 {
        fill: #d0d2d3;
      }

      .cls-2, .cls-3, .cls-4 {
        fill-rule: evenodd;
      }

      .cls-5 {
        fill: #fff;
      }

      .cls-3, .cls-6 {
        fill: #113d66;
      }

      .cls-7 {
        fill: #004071;
      }

      .cls-4 {
        fill: #ec1c24;
      }

      .cls-8 {
        fill: #004a7d;
      }

      .cls-9 {
        fill: #00a3df;
      }

      .cls-10 {
        fill: #0090d3;
      }

      .cls-11 {
        fill: #005b91;
      }

      .cls-12 {
        clip-rule: evenodd;
        fill: none;
      }

      .cls-13 {
        fill: #006ca5;
      }

      .cls-14 {
        fill: #b6d9f2;
      }

      .cls-15 {
        fill: #6db9e7;
      }

      .cls-16 {
        fill: #007dbb;
      }

      .cls-17 {
        fill: #008ac9;
      }

      .cls-18 {
        clip-path: url(#clippath);
      }
    </style>
    <clipPath id="clippath">
      <path class="cls-12" d="M416.797,48.8167l29.6303,40.4744h-78.4631v-18.8801h27.0229l-29.6303-40.4754h78.463v18.8812h-27.0229ZM511.6359,29.9355h37.6171v59.3556h-98.1319V29.9355h37.6171v40.6193h22.8978V29.9355h0ZM234.2619,29.9355h-60.5149v59.3556h46.6929l13.822-18.8801v18.8801h37.6171V29.9355h-37.6171ZM211.3652,48.8167h22.8967v21.5943h-22.8967v-21.5943h0ZM299.8092,7.5488h37.6175v22.3866h22.8978v18.8812h-22.8978v21.5943h22.8978v18.8801h-60.5152v-40.4744h-22.8974v-18.8812h22.8974V7.5488Z"/>
    </clipPath>
  </defs>
  <path class="cls-2" d="M670.2838,0h52.7162v118.7986h-88.9452l-1.5723-5.4604c-1.9771-6.8649-4.8597-13.4051-8.4037-19.5779l-18.3308,25.0383h-48.9955v-21.9576h-264.4922v-40.4754h-12.8325v40.4754h-52.7152v-3.3377l-2.4432,3.3377h-58.022v21.9576h-48.9958l-18.3011-25.0001c-3.5372,6.1661-6.4106,12.6991-8.3816,19.5397l-1.5723,5.4604H0V0h86.614l26.9173,36.7701V0h52.7162v22.3866h126.0129V0h52.7162v22.3866h151.3115v40.6193h7.798V22.3866h52.6666V0h52.7158v36.7701L636.386,0h33.8978ZM670.2838,30.6419l-18.1787,24.8313c6.8721,7.6117,13.0531,15.8487,18.1787,24.6764V30.6419h0ZM52.7158,30.6419v49.5976c4.8536-8.3766,10.6592-16.2259,17.1065-23.511l1.0897-1.23-18.1962-24.8566h0ZM360.4155,62.861h19.6893l-12.2315-16.7085v10.213h-22.8967v6.4955h15.4389ZM443.5722,72.6107v-16.2452h-11.8938l11.8938,16.2452h0ZM218.914,56.3655v6.4955h7.7987v-6.4955h-7.7987Z"/>
  <g>
    <path class="cls-3" d="M94.104,87.1783c-4.7733,7.7644-8.4087,15.8062-10.7895,24.0703h-35.3438c4.466-17.4956,13.898-34.1416,27.5055-49.5166l18.6278,25.4463h0ZM642.3161,56.066c16.4487,16.9209,27.7443,35.5158,32.7646,55.1826h-35.3434c-3.0761-10.6802-8.2491-20.9892-15.2651-30.8078l17.8439-24.3748Z"/>
    <g class="cls-18">
      <rect class="cls-6" x="173.747" y="87.3454" width="375.506" height="1.9457"/>
      <rect class="cls-1" x="173.747" y="83.453" width="375.506" height="5.838"/>
      <rect class="cls-17" x="173.747" y="79.5595" width="375.506" height="5.8391"/>
      <rect class="cls-9" x="173.747" y="75.6672" width="375.506" height="5.8391"/>
      <rect class="cls-15" x="173.747" y="71.7751" width="375.506" height="5.8388"/>
      <rect class="cls-14" x="173.747" y="67.8827" width="375.506" height="5.8388"/>
      <rect class="cls-5" x="173.747" y="63.9904" width="375.506" height="5.8388"/>
      <rect class="cls-14" x="173.747" y="60.098" width="375.506" height="5.838"/>
      <rect class="cls-15" x="173.747" y="56.2045" width="375.506" height="5.8391"/>
      <rect class="cls-9" x="173.747" y="52.3121" width="375.506" height="5.8391"/>
      <rect class="cls-10" x="173.747" y="48.4198" width="375.506" height="5.8391"/>
      <rect class="cls-16" x="173.747" y="44.5274" width="375.506" height="5.8391"/>
      <rect class="cls-13" x="173.747" y="40.6353" width="375.506" height="5.8388"/>
      <rect class="cls-11" x="173.747" y="36.743" width="375.506" height="5.838"/>
      <rect class="cls-8" x="173.747" y="32.8506" width="375.506" height="5.838"/>
      <rect class="cls-7" x="173.747" y="28.9571" width="375.506" height="5.8391"/>
      <rect class="cls-7" x="173.747" y="25.0647" width="375.506" height="5.8391"/>
      <rect class="cls-7" x="173.747" y="21.1724" width="375.506" height="5.8391"/>
      <rect class="cls-7" x="173.747" y="17.28" width="375.506" height="5.8391"/>
      <rect class="cls-7" x="173.747" y="13.3879" width="375.506" height="5.838"/>
      <rect class="cls-7" x="173.747" y="7.5488" width="375.506" height="7.7848"/>
    </g>
    <path class="cls-4" d="M45.167,7.5488H7.5488v103.6998h37.6182V7.5488ZM45.167,7.5488h37.6171l38.2974,52.3132V7.5488h37.6171v103.6998h-37.6171L45.167,7.5488h0ZM677.833,7.5488h37.6182v103.6998h-37.6182V7.5488ZM677.833,7.5488h-37.6175l-38.296,52.3132V7.5488h-37.6182v103.6998h37.6182L677.833,7.5488Z"/>
  </g>
</svg>